<svg width="17" viewBox="0 0 30 31" fill="transparent" xmlns="http://www.w3.org/2000/svg">
<path d="M25.4982 13.7586C25.4982 16.1793 24.7804 18.5456 23.4355 20.5583C22.0907 22.571 20.1792 24.1397 17.9428 25.066C15.7064 25.9924 13.2455 26.2347 10.8714 25.7625C8.49722 25.2903 6.31643 24.1246 4.60477 22.4129C2.8931 20.7013 1.72744 18.5205 1.2552 16.1463C0.782948 13.7722 1.02532 11.3113 1.95167 9.07491C2.87801 6.83851 4.44673 4.92703 6.45943 3.58219C8.47214 2.23734 10.8384 1.51953 13.2591 1.51953C16.5051 1.51953 19.6182 2.809 21.9134 5.10427C24.2087 7.39954 25.4982 10.5126 25.4982 13.7586Z" stroke="#aaaaaa" stroke-width="2" stroke-linecap="round" stroke-linejoin="round"/>
<path d="M28.5578 29.0573L21.9028 22.4023" stroke="#aaaaaa" stroke-width="2" stroke-linecap="round" stroke-linejoin="round"/>
</svg>
