<?xml version="1.0" standalone="no"?>
<!DOCTYPE svg PUBLIC "-//W3C//DTD SVG 20010904//EN"
 "http://www.w3.org/TR/2001/REC-SVG-20010904/DTD/svg10.dtd">
<svg version="1.0" xmlns="http://www.w3.org/2000/svg"
  viewBox="0 0 1000.000000 1000.000000"
 preserveAspectRatio="xMidYMid meet">

<g transform="translate(0.000000,1200.000000) scale(0.100000,-0.100000)"
fill=current>
<path d="M3392 9310 c-92 -24 -212 -87 -280 -146 -151 -132 -242 -350 -227
-541 22 -294 194 -515 470 -609 73 -24 97 -27 268 -32 103 -2 187 -9 187 -14
0 -5 -9 -27 -21 -49 -38 -75 -107 -263 -138 -374 -97 -353 -113 -727 -46
-1090 35 -188 109 -425 174 -553 42 -84 49 -79 -106 -85 -232 -8 -351 -56
-494 -197 -137 -135 -199 -282 -199 -472 0 -124 13 -182 61 -287 49 -105 100
-172 182 -239 80 -64 166 -108 265 -133 75 -19 131 -19 2582 -17 l2505 3 84
29 c271 95 451 341 454 621 2 207 -63 364 -210 507 -73 72 -156 122 -258 155
-72 24 -99 27 -267 31 -104 2 -188 8 -188 12 0 4 16 43 36 86 51 112 111 291
144 429 112 469 78 978 -95 1421 -24 62 -53 130 -64 153 -12 22 -21 44 -21 49
0 5 62 12 138 15 154 6 230 24 347 85 95 50 217 172 268 268 103 197 103 438
0 637 -56 108 -182 231 -293 285 -158 78 55 72 -2708 71 -2403 0 -2479 -1
-2550 -19z m293 -175 c188 -49 340 -221 364 -410 14 -115 -13 -246 -68 -328
-34 -51 -105 -120 -165 -159 -240 -155 -572 -58 -701 205 -97 199 -54 426 109
574 127 117 298 160 461 118z m2543 5 c421 -45 806 -199 1145 -457 118 -90
308 -276 391 -380 426 -543 584 -1229 435 -1895 -36 -165 -119 -394 -191 -530
l-31 -58 -660 0 -660 0 69 49 c270 190 462 493 518 816 9 50 16 142 16 205 0
348 -129 661 -369 900 -177 176 -373 284 -629 347 -60 15 -181 17 -1149 20
-596 2 -1083 6 -1083 9 0 3 21 29 46 57 52 59 126 206 145 287 18 78 15 232
-5 310 -25 92 -77 195 -136 268 l-51 62 1051 0 c656 0 1087 -4 1148 -10z
m2241 -5 c87 -23 162 -66 226 -130 99 -99 145 -210 145 -350 0 -136 -47 -244
-149 -346 -116 -115 -220 -149 -461 -149 l-145 0 -50 77 c-224 347 -569 650
-959 844 l-140 69 740 0 c609 0 748 -3 793 -15z m-3199 -1206 c-157 -111 -307
-285 -396 -462 -93 -184 -134 -357 -134 -567 0 -405 179 -764 500 -1006 99
-75 292 -173 400 -203 186 -51 178 -51 1291 -51 572 0 1039 -3 1039 -6 0 -3
-20 -29 -45 -57 -56 -64 -118 -181 -141 -267 -23 -85 -23 -242 -1 -330 23 -89
76 -193 136 -267 l51 -63 -1058 0 c-1012 0 -1140 3 -1302 31 -690 117 -1308
577 -1625 1209 -113 225 -185 457 -221 706 -23 162 -23 450 0 609 34 235 114
491 217 698 l39 77 662 0 661 0 -73 -51z m995 17 c307 -79 560 -285 700 -569
75 -152 105 -272 112 -447 4 -113 2 -152 -16 -238 -33 -160 -94 -299 -184
-422 -221 -300 -558 -463 -927 -447 -146 7 -250 30 -377 85 -132 57 -225 122
-343 242 -158 160 -246 322 -290 540 -19 89 -21 126 -17 245 6 162 27 259 84
391 78 179 225 358 382 464 129 87 304 156 457 180 106 16 307 5 419 -24z
m-2278 -2414 c82 -123 228 -296 329 -392 197 -185 464 -365 677 -456 l68 -29
-737 -3 c-810 -2 -803 -3 -908 58 -164 94 -256 250 -256 434 0 135 38 232 129
330 57 60 113 99 182 127 81 32 120 37 289 38 l155 0 72 -107z m4539 97 c167
-30 324 -163 380 -321 95 -269 -65 -571 -341 -643 -413 -107 -762 332 -563
707 48 90 128 168 218 211 111 53 196 66 306 46z"/>
</g>
</svg>
